<svg width="24" height="24" viewBox="0 0 24 24" fill="none" xmlns="http://www.w3.org/2000/svg">
<path d="M3 18H21M5 14L9 10L12 12L18 5" stroke="#667085" stroke-width="1.8" stroke-linecap="round" stroke-linejoin="round"/>
<path d="M5 15C5.55228 15 6 14.5523 6 14C6 13.4477 5.55228 13 5 13C4.44772 13 4 13.4477 4 14C4 14.5523 4.44772 15 5 15Z" stroke="#667085" stroke-width="1.8" stroke-linecap="round" stroke-linejoin="round"/>
<path d="M17.5 6C18.0523 6 19 6.05228 19 5.5C19 4.94772 19.0523 3.99998 18.5 3.99998C17.9477 3.99998 17 3.94771 17 4.5C17 5.05228 16.9477 6 17.5 6Z" stroke="#667085" stroke-width="1.8" stroke-linecap="round" stroke-linejoin="round"/>
</svg>
